<svg data-v-423bf9ae="" xmlns="http://www.w3.org/2000/svg" viewBox="0 0 319.3014756444467 163" class="iconAbove"><g data-v-423bf9ae="" id="105737f7-3799-42bb-a9e6-a69c29577aaf" fill="#8FFFE0" transform="matrix(5.5147058243466915,0,0,5.5147058243466915,-6.948531491623896,104.32353254987707)"><path d="M6.97 7.87C6.97 6.69 6.13 5.64 4.49 5.54C5.87 5.31 6.43 4.30 6.43 3.30C6.43 1.71 5.22 1.09 3.25 1.09L1.26 1.09L1.26 10.50L3.64 10.50C5.42 10.50 6.97 9.77 6.97 7.87ZM6.45 7.85C6.45 9.38 5.33 10.07 3.65 10.07L1.76 10.07L1.76 5.78L3.47 5.78C5.47 5.78 6.45 6.51 6.45 7.85ZM5.92 3.33C5.92 4.42 5.26 5.35 3.40 5.35L1.76 5.35L1.76 1.51L3.44 1.51C5.07 1.51 5.92 2.20 5.92 3.33ZM9.14 10.50L9.62 10.50L9.62-0.24L9.14-0.24ZM18.33 10.22L17.77 10.22C17.32 10.22 17.21 10.00 17.21 9.60L17.21 5.54C17.21 3.93 16.35 3.14 14.71 3.14C13.16 3.14 12.35 3.86 12.18 5.05L12.67 5.10C12.85 4.00 13.50 3.54 14.70 3.54C16.09 3.54 16.72 4.21 16.72 5.60L16.72 6.33L15.01 6.33C13.03 6.33 11.86 7.07 11.86 8.57C11.86 9.79 12.64 10.64 14.13 10.64C15.47 10.64 16.35 10.01 16.72 8.83L16.72 9.63C16.72 10.22 16.93 10.64 17.67 10.64C17.96 10.64 18.20 10.63 18.33 10.61ZM14.13 10.23C12.98 10.23 12.33 9.56 12.33 8.55C12.33 7.25 13.37 6.72 15.13 6.72L16.72 6.72L16.72 7.03C16.72 8.82 15.93 10.23 14.13 10.23ZM22.57 10.64C24.25 10.64 24.99 9.46 25.17 8.41L24.67 8.37C24.44 9.38 23.87 10.21 22.57 10.21C20.71 10.21 20.12 8.74 20.12 6.82C20.12 4.58 21.03 3.57 22.53 3.57C23.65 3.57 24.39 4.09 24.61 5.19L25.13 5.15C24.89 3.98 24.08 3.14 22.53 3.14C20.86 3.14 19.59 4.21 19.59 6.83C19.59 8.99 20.37 10.64 22.57 10.64ZM31.86 10.50L32.44 10.50L29.25 6.59L32.34 3.28L31.72 3.28L27.89 7.38L27.89-0.24L27.41-0.24L27.41 10.50L27.89 10.50L27.89 7.94L28.92 6.93ZM36.62 10.50L37.09 10.50L37.09 2.58C37.09 2.27 37.07 1.55 37.07 1.54C37.09 1.60 37.28 2.18 37.42 2.51L40.63 10.50L41.13 10.50L44.25 2.44C44.39 2.06 44.55 1.57 44.56 1.53L44.56 2.42L44.55 10.50L45.01 10.50L45.01 1.09L44.31 1.09L41.43 8.54C41.15 9.28 40.88 10.02 40.88 10.02C40.88 10.02 40.61 9.30 40.31 8.53L37.31 1.09L36.62 1.09ZM53.72 10.22L53.16 10.22C52.71 10.22 52.60 10.00 52.60 9.60L52.60 5.54C52.60 3.93 51.74 3.14 50.11 3.14C48.55 3.14 47.74 3.86 47.57 5.05L48.06 5.10C48.24 4.00 48.89 3.54 50.09 3.54C51.48 3.54 52.11 4.21 52.11 5.60L52.11 6.33L50.40 6.33C48.43 6.33 47.25 7.07 47.25 8.57C47.25 9.79 48.03 10.64 49.52 10.64C50.86 10.64 51.74 10.01 52.11 8.83L52.11 9.63C52.11 10.22 52.32 10.64 53.06 10.64C53.35 10.64 53.59 10.63 53.72 10.61ZM49.52 10.23C48.37 10.23 47.73 9.56 47.73 8.55C47.73 7.25 48.76 6.72 50.53 6.72L52.11 6.72L52.11 7.03C52.11 8.82 51.32 10.23 49.52 10.23ZM55.54 10.50L56.03 10.50L56.03 3.28L55.54 3.28ZM55.47 1.39L56.10 1.39L56.10 0.60L55.47 0.60ZM58.69 10.50L59.16 10.50L59.16-0.24L58.69-0.24Z"></path></g><g data-v-423bf9ae="" id="0925571c-6382-4eb6-9aa6-b8d99b076d15" transform="matrix(1.186161449752883,0,0,1.186161449752883,100.69192751235585,-14.24547874790047)" stroke="none" fill="#8FFFE0"><path d="M95 14.296 29.416 79.881v-5.596l62.223-62.223h-7.777L29.416 66.506V60.91l48.849-48.848h-7.779L49.812 32.734 29.14 12.062h-7.779l24.562 24.563-2.799 2.798-27.36-27.361H7.986l31.25 31.25-2.798 2.798L5 14.673v73.264h5.5V27.953l3.958 3.957v56.027h5.5V37.412l3.958 3.957v46.568h5.501v-.277l20.396-20.395 20.674 20.672h5.599V40.994l3.958-3.959v50.902h5.5V31.535l3.958-3.958v60.36H95V22.369h-.291l.291-.291zM32.546 50l-3.13 3.131v-6.262zm30.642 3.891 7.396 7.396v5.598L60.389 56.688zm-9.486 9.484 2.798-2.799 14.084 14.086v5.596zm16.882-9.869-3.506-3.507 3.506-3.506z"></path></g></svg>